<svg xmlns="http://www.w3.org/2000/svg" width="880" height="170" viewBox="0 0 880 170" role="img" aria-label="skill-plus-plus: repeated work becomes a reviewed skill"><title>skill-plus-plus</title><rect x="98" y="36.0" width="92" height="50" rx="9" fill="#0c1b33" stroke="#58a6ff" stroke-width="1.4"/><rect x="110" y="50.0" width="57" height="5" rx="2.5" fill="#58a6ff" opacity="0.55"/><rect x="110" y="62.0" width="39" height="5" rx="2.5" fill="#58a6ff" opacity="0.55"/><rect x="122" y="60.0" width="92" height="50" rx="9" fill="#1a1333" stroke="#a78bfa" stroke-width="1.4"/><rect x="134" y="74.0" width="57" height="5" rx="2.5" fill="#a78bfa" opacity="0.55"/><rect x="134" y="86.0" width="39" height="5" rx="2.5" fill="#a78bfa" opacity="0.55"/><rect x="146" y="84.0" width="92" height="50" rx="9" fill="#0b2419" stroke="#3fb950" stroke-width="1.4"/><rect x="158" y="98.0" width="57" height="5" rx="2.5" fill="#3fb950" opacity="0.55"/><rect x="158" y="110.0" width="39" height="5" rx="2.5" fill="#3fb950" opacity="0.55"/><line x1="254" y1="85.0" x2="284" y2="85.0" stroke="#6e7681" stroke-width="2" stroke-linecap="round"/><path d="M282,79.0 L290,85.0 L282,91.0" fill="none" stroke="#6e7681" stroke-width="2" stroke-linecap="round" stroke-linejoin="round"/><rect x="306" y="24.0" width="104" height="122" rx="11" fill="#0d1117" stroke="#3fb950" stroke-width="1.8"/><text x="320" y="50.0" font-family="ui-monospace, SFMono-Regular, Menlo, Consolas, monospace" font-size="12" font-weight="600" fill="#3fb950">SKILL.md</text><circle cx="325" cy="70.0" r="3.2" fill="#3fb950"/><rect x="335" y="67.5" width="59" height="5" rx="2.5" fill="#30363d"/><circle cx="325" cy="87.0" r="3.2" fill="#3fb950"/><rect x="335" y="84.5" width="43" height="5" rx="2.5" fill="#30363d"/><circle cx="325" cy="104.0" r="3.2" fill="#3fb950"/><rect x="335" y="101.5" width="59" height="5" rx="2.5" fill="#30363d"/><circle cx="325" cy="121.0" r="3.2" fill="#3fb950"/><rect x="335" y="118.5" width="43" height="5" rx="2.5" fill="#30363d"/><text x="458" y="99.0" font-family="-apple-system, BlinkMacSystemFont, 'Segoe UI', Helvetica, Arial, sans-serif" font-size="50" font-weight="800" letter-spacing="-1.2"><tspan fill="#e6edf3">skill</tspan><tspan fill="#3fb950">-plus-plus</tspan></text><text x="460" y="129.0" font-family="ui-monospace, SFMono-Regular, Menlo, Consolas, monospace" font-size="14" fill="#9aa7b4">repeated work → reviewed skills</text></svg>
